<svg width="256" height="256" viewBox="0 0 256 256" fill="none" xmlns="http://www.w3.org/2000/svg">
<path d="M0.054429 185.46C0.054429 224.419 27.3372 256 60.9937 256C94.6507 256 121.933 224.419 121.933 185.46C121.933 146.501 94.6507 114.921 60.9937 114.921C54.0767 114.921 47.4556 116.317 41.2572 118.776C54.9711 27.7329 116.305 -30.9798 59.4487 17.3419C-3.59678 70.9254 -0.0130926 183.304 0.0574523 185.364C0.0574523 185.396 0.054429 185.425 0.054429 185.46Z" fill="#E6FFFA"/>
<path d="M134.121 185.46C134.121 224.419 161.403 256 195.06 256C228.717 256 256 224.419 256 185.46C256 146.501 228.717 114.921 195.06 114.921C188.142 114.921 181.522 116.317 175.323 118.776C189.037 27.7329 250.372 -30.9798 193.515 17.3419C130.469 70.9254 134.053 183.304 134.124 185.364C134.124 185.396 134.121 185.425 134.121 185.46Z" fill="#E6FFFA"/>
</svg>
